<svg width="84" height="60" viewBox="0 0 84 60" fill="none" xmlns="http://www.w3.org/2000/svg">
<path d="M0 43.4906V5C0 2.23858 2.23858 0 5 0H79C81.7614 0 84 2.23857 84 5V32.8452C84 34.593 83.0874 36.2139 81.593 37.1203L64.0419 47.7657C63.2601 48.2398 62.3632 48.4906 61.4489 48.4906H43.7419C42.804 48.4906 41.8849 48.7544 41.0898 49.2519L27.7385 57.606C26.0734 58.6478 23.9124 57.4508 23.9124 55.4867V48.4906H5C2.23858 48.4906 0 46.252 0 43.4906Z" fill="#25D366"/>
<path d="M18 14.2541V10L38.5524 18.5635C40.0346 19.1811 41 20.6292 41 22.2348C41 24.1616 39.8415 25.8994 38.0629 26.6404L18 35V30.7459C18 29.0504 19.069 27.539 20.6676 26.9743L33.3333 22.5L20.6676 18.0257C19.069 17.461 18 15.9496 18 14.2541Z" fill="white"/>
<path d="M43 38V34C43 32.3431 44.3431 31 46 31H68V35C68 36.6569 66.6569 38 65 38H43Z" fill="white"/>
</svg>
